; NON-PLATED HOLES START AT T1
; THROUGH (PLATED) HOLES START AT T100
M48
INCH
T100C0.042000
T101C0.027559
T102C0.032000
T103C0.038000
T104C0.035000
T105C0.040000
T106C0.015748
%
T100
X012250Y004148
X006546Y007986
X004546Y007986
X009270Y004148
X005546Y007986
T101
X026495Y008183
X025495Y008183
T102
X001494Y003163
X001494Y002376
X001494Y003951
X001494Y004738
T103
X014191Y003852
X004250Y003049
X014191Y002852
X004250Y004049
T104
X026002Y001293
X012297Y005132
X028955Y004344
X007919Y004148
X027479Y004293
X016455Y004640
X027479Y001293
X009297Y005132
X007302Y001884
X007919Y005148
X026002Y004293
X004302Y001884
X028955Y001344
X007919Y006148
X016455Y007640
T105
X000904Y008577
X014404Y008477
X002904Y008577
X008483Y008478
X012043Y008478
X009583Y008478
X015404Y008577
X013404Y008577
X010943Y008478
X001904Y008477
T106
X018330Y007590
X005530Y003557
X018330Y002969
X006711Y006510
X002971Y005919
X005530Y005329
X005037Y005916
X021869Y003852
X020884Y004640
X015766Y002277
T00
M30
